<?xml version="1.0" encoding="iso-8859-1"?>
<!-- Generator: Adobe Illustrator 19.0.0, SVG Export Plug-In . SVG Version: 6.00 Build 0)  -->
<svg xmlns="http://www.w3.org/2000/svg" xmlns:xlink="http://www.w3.org/1999/xlink" version="1.1" id="Capa_1" x="0px" y="0px" viewBox="0 0 490.667 490.667" style="enable-background:new 0 0 490.667 490.667;" xml:space="preserve" width="512px" height="512px">
<g id="SVGCleanerId_0">
	<g>
		<path d="M245.333,149.333c-5.888,0-10.667,4.779-10.667,10.667v170.667c0,5.888,4.779,10.667,10.667,10.667    S256,336.555,256,330.667V160C256,154.112,251.221,149.333,245.333,149.333z" fill="#7E7E7E"/>
	</g>
</g>
<g>
	<g>
		<path d="M245.333,149.333c-5.888,0-10.667,4.779-10.667,10.667v170.667c0,5.888,4.779,10.667,10.667,10.667    S256,336.555,256,330.667V160C256,154.112,251.221,149.333,245.333,149.333z" fill="#7E7E7E"/>
	</g>
</g>
<g>
	<g>
		<path d="M202.667,149.333h-45.163c-5.355,0-9.92,4.011-10.581,9.344l-5.333,42.667c-0.384,3.093,0.533,6.059,2.581,8.384    s4.885,3.605,8,3.605h50.496c5.888,0,10.667-4.779,10.667-10.667V160C213.333,154.112,208.555,149.333,202.667,149.333z" fill="#7E7E7E"/>
	</g>
</g>
<g>
	<g>
		<path d="M352,42.667H138.667c-29.397,0-53.333,23.936-53.333,53.333v74.667h38.592l1.835-14.635    C127.744,140.053,141.397,128,157.504,128h45.163c17.643,0,32,14.357,32,32v10.667H256V160c0-17.643,14.357-32,32-32h45.163    c16.107,0,29.76,12.053,31.744,28.032l2.112,16.917c1.792-1.344,3.904-2.283,6.315-2.283h32V96    C405.333,66.603,381.397,42.667,352,42.667z" fill="#7E7E7E"/>
	</g>
</g>
<g>
	<g>
		<path d="M349.077,201.344l-5.333-42.667c-0.661-5.333-5.205-9.344-10.581-9.344H288c-5.888,0-10.667,4.779-10.667,10.667v42.667    c0,5.888,4.779,10.667,10.667,10.667h50.496c3.115,0,5.952-1.28,8-3.605C348.544,207.403,349.461,204.416,349.077,201.344z" fill="#7E7E7E"/>
	</g>
</g>
<g>
	<g>
		<path d="M489.749,369.003L411.072,192h-37.739c-1.429,0-2.773-0.299-4.032-0.811l0.939,7.509    c1.131,9.109-1.685,18.261-7.765,25.152c-6.08,6.869-14.805,10.816-24,10.816H288c-17.643,0-32-14.357-32-32V192h-21.333v10.667    c0,17.643-14.357,32-32,32h-50.496c-9.173,0-17.92-3.947-24-10.816c-6.08-6.891-8.896-16.043-7.765-25.152l0.853-6.699H79.595    L0.917,369.003C0.32,370.368,0,371.84,0,373.333v64C0,443.221,4.779,448,10.667,448H480c5.888,0,10.667-4.779,10.667-10.667v-64    C490.667,371.84,490.347,370.368,489.749,369.003z M458.667,384H32c-5.888,0-10.667-4.779-10.667-10.667    c0-5.888,4.779-10.667,10.667-10.667h426.667c5.888,0,10.667,4.779,10.667,10.667C469.333,379.221,464.555,384,458.667,384z" fill="#7E7E7E"/>
	</g>
</g>
<g>
</g>
<g>
</g>
<g>
</g>
<g>
</g>
<g>
</g>
<g>
</g>
<g>
</g>
<g>
</g>
<g>
</g>
<g>
</g>
<g>
</g>
<g>
</g>
<g>
</g>
<g>
</g>
<g>
</g>
</svg>
