<?xml version="1.0" encoding="iso-8859-1"?>
<!-- Generator: Adobe Illustrator 19.0.0, SVG Export Plug-In . SVG Version: 6.00 Build 0)  -->
<svg xmlns="http://www.w3.org/2000/svg" xmlns:xlink="http://www.w3.org/1999/xlink" version="1.1" id="Layer_1" x="0px" y="0px" viewBox="0 0 513.067 513.067" style="enable-background:new 0 0 513.067 513.067;" xml:space="preserve" width="512px" height="512px">
<g>
	<g>
		<path d="M233.6,294.933l-27.733,27.733c10.667,6.4,23.467,6.4,29.867,0C242.133,316.267,240,307.733,233.6,294.933z" fill="#7E7E7E"/>
	</g>
</g>
<g>
	<g>
		<path d="M235.733,233.067c-6.4,6.4-4.267,14.933,2.133,27.733l27.733-27.733C254.933,226.667,242.133,226.667,235.733,233.067z" fill="#7E7E7E"/>
	</g>
</g>
<g>
	<g>
		<path d="M502.4,0.533h-192c-2.133,0-6.4,2.133-8.533,2.133L3.2,301.333c-4.267,4.267-4.267,10.667,0,14.933l192,192    c2.133,4.267,6.4,4.267,8.533,4.267c2.133,0,6.4,0,8.533-2.133l298.667-298.667c0-2.133,2.133-6.4,2.133-8.533v-192    C513.067,4.8,508.8,0.533,502.4,0.533z M297.6,290.667c-4.267,4.267-10.667,4.267-14.933,2.133    c-4.267-4.267-4.267-10.667,0-14.933c6.4-6.4,4.267-17.067-2.133-27.733L250.667,280c14.933,25.6,14.933,44.8,2.133,59.733    c-6.4,6.4-17.067,10.667-27.733,10.667s-21.333-4.267-32-10.667l-2.133,2.133c-2.133,0-6.4,0-8.533,0c-2.133,0-6.4,0-8.533-2.133    c-4.267-4.267-4.267-10.667,0-14.933l2.133-2.133c-14.933-19.2-14.933-42.667-2.133-57.6c4.267-4.267,10.667-4.267,14.933-2.133    c4.267,4.267,4.267,10.667,0,14.933c-6.4,6.4-4.267,17.067,2.133,27.733l29.867-29.867c-14.933-25.6-14.933-44.8-2.133-59.733    c8.533-8.533,21.333-12.8,34.133-10.667c8.533,2.133,17.067,4.267,25.6,10.667l2.133-2.133c4.267-4.267,10.667-4.267,14.933,0    s4.267,10.667,0,14.933l-2.133,2.133C310.4,252.267,310.4,275.733,297.6,290.667z M395.733,171.2    c-29.867,0-53.333-23.467-53.333-53.333c0-29.867,23.467-53.333,53.333-53.333S449.067,88,449.067,117.867    C449.067,147.733,425.6,171.2,395.733,171.2z" fill="#7E7E7E"/>
	</g>
</g>
<g>
</g>
<g>
</g>
<g>
</g>
<g>
</g>
<g>
</g>
<g>
</g>
<g>
</g>
<g>
</g>
<g>
</g>
<g>
</g>
<g>
</g>
<g>
</g>
<g>
</g>
<g>
</g>
<g>
</g>
</svg>
