<svg xmlns="http://www.w3.org/2000/svg" xmlns:xlink="http://www.w3.org/1999/xlink" version="1.1" x="0px" y="0px" viewBox="0 0 100 125" enable-background="new 0 0 100 100" xml:space="preserve"><g><path fill="none" d="M75.325,9.016l-0.185-0.001c-9.136,0-19.02,7.394-23.119,12.644l-0.191,0.258   c-0.411,0.564-1.033,1.417-2.09,1.417c-0.977,0-1.732-0.741-2.215-1.298c-0.116-0.132-0.533-0.584-0.84-0.917   c-0.197-0.214-0.353-0.383-0.374-0.407C42.277,16.008,33.117,9.015,24.408,9.015l-0.179,0.001   c-8.095,0.092-14.373,2.643-18.154,7.378c-3.86,4.834-4.943,11.844-3.132,20.273C6.78,54.511,44.217,86.25,49.545,90.691   c5.406-4.422,43.588-36.183,47.495-54.028c1.826-8.338,0.764-15.294-3.072-20.117C90.124,11.714,83.678,9.11,75.325,9.016z"/><path d="M95.532,15.301c-4.23-5.319-11.21-8.184-20.185-8.285l-0.207-0.001c-9.809,0-20.346,7.843-24.697,13.415   c-0.076,0.099-0.153,0.203-0.23,0.309c-0.149,0.206-0.399,0.549-0.46,0.597c-0.002,0-0.23-0.048-0.72-0.613   c-0.125-0.142-0.558-0.613-0.877-0.959l-0.329-0.356c-4.273-4.981-14.037-12.392-23.42-12.392l-0.201,0.001   c-8.716,0.099-15.526,2.911-19.694,8.13c-4.247,5.319-5.466,12.906-3.524,21.941c1.796,8.355,10.425,20.277,25.646,35.435   C37.902,83.742,48.797,92.671,48.906,92.76l0.627,0.513l0.631-0.507c0.111-0.089,11.213-9.017,22.696-20.238   c15.511-15.156,24.304-27.08,26.133-35.437C100.953,28.146,99.756,20.611,95.532,15.301z M97.04,36.663   C93.133,54.509,54.951,86.27,49.545,90.691C44.217,86.25,6.78,54.511,2.943,36.667c-1.811-8.429-0.729-15.439,3.132-20.273   c3.781-4.735,10.059-7.286,18.154-7.378l0.179-0.001c8.709,0,17.87,6.993,21.904,11.696c0.021,0.024,0.176,0.193,0.374,0.407   c0.307,0.333,0.724,0.785,0.84,0.917c0.483,0.558,1.238,1.298,2.215,1.298c1.057,0,1.679-0.853,2.09-1.417l0.191-0.258   c4.1-5.25,13.983-12.644,23.119-12.644l0.185,0.001c8.353,0.094,14.799,2.698,18.643,7.53   C97.804,21.369,98.866,28.325,97.04,36.663z"/></g><text x="0" y="115" fill="#000000" font-size="5px" font-weight="bold" font-family="'Helvetica Neue', Helvetica, Arial-Unicode, Arial, Sans-serif">Created by Dávid Gladiš</text><text x="0" y="120" fill="#000000" font-size="5px" font-weight="bold" font-family="'Helvetica Neue', Helvetica, Arial-Unicode, Arial, Sans-serif">from the Noun Project</text></svg>